<svg fill="none" stroke="#ffc566" stroke-width="20" xmlns="http://www.w3.org/2000/svg" viewBox="0 0 800 800"><path d="M200 650h60m-60-300v300m0-300a100 100 0 01400 0m0 0v300m0 0h60"/><circle cx="320" cy="350" r="120"/><circle cx="260" cy="320" r="25"/><circle cx="350" cy="320" r="25"/><path d="M135 570a35 35 0 010-70m0 0h25m-25 70h25m-60 20h60m340-20a35 35 0 010-70m0 0h25m-25 70h25m-60 20h60M189 231a30 30 45 0142-42m-42 42l20 20m22-62l10 10m348-10a30 30 135 0142 42m-42-42l-10 10m52 32l-20 20"/></svg>