<svg fill="#000" width="100px" height="100px" viewBox="0 0 512 512" xmlns="http://www.w3.org/2000/svg" xmlns:xlink="http://www.w3.org/1999/xlink">
    <path text="Master Quiz" transform="matrix(0.6285887360572815, 0, 0, 0.6285887360572815, 249.9341278076172, 360.7450256347656)" d="M-255.5 0.5Q-259.2 0.5 -260.8-1.15Q-262.4-2.8 -262.4-7.4L-262.4-7.4Q-262.4-10.5 -261.75-15.35Q-261.09999999999997-20.2 -259.59999999999997-28.7L-259.59999999999997-28.7Q-257-44.4 -255.5-55.9L-255.5-55.9Q-254.6-63.1 -254.6-67.9L-254.6-67.9Q-254.6-72.4 -257.9-72.4L-257.9-72.4Q-260.5-72.4 -264.15-69.75Q-267.8-67.1 -272.2-61.3L-272.2-61.3Q-273.59999999999997-59.4 -275.3-59.4L-275.3-59.4Q-276.7-59.4 -277.75-60.75Q-278.8-62.1-278.8-63.8L-278.8-63.8Q-278.8-65.4 -278.15-67.05Q-277.5-68.7 -276-70.8L-276-70.8Q-271.2-77.5 -265.3-81.15Q-259.4-84.8 -253.5-84.8L-253.5-84.8Q-248-84.8 -245.04999999999998-81.3Q-242.1-77.8 -242.1-71.1L-242.1-71.1Q-242.1-68.4 -242.6-64.75Q-243.1-61.1 -243.5-58.8Q-243.89999999999998-56.5 -244.1-55.6L-244.1-55.6Q-238.39999999999998-71.9 -231.29999999999998-78.35Q-224.2-84.8 -215.7-84.8L-215.7-84.8Q-209.2-84.8 -205.45-80.2Q-201.7-75.6 -201.7-67.2L-201.7-67.2Q-201.7-63.9 -202.6-59L-202.6-59Q-197.6-72.8 -190.89999999999998-78.8Q-184.2-84.8 -175.5-84.8L-175.5-84.8Q-168.5-84.8 -164.75-80.3Q-161-75.8 -161-67.7L-161-67.7Q-161-63.3 -162.29999999999998-57L-162.29999999999998-57L-168.39999999999998-28.4Q-169.39999999999998-23.4 -169.39999999999998-19.8L-169.39999999999998-19.8Q-169.39999999999998-15.6 -167.45-13.5Q-165.5-11.4 -162-11.4L-162-11.4Q-158.7-11.4 -155.54999999999998-13.6Q-152.39999999999998-15.8 -148.1-20.9L-148.1-20.9Q-146.89999999999998-22.3 -145.39999999999998-22.3L-145.39999999999998-22.3Q-144.1-22.3 -143.35-21.1Q-142.6-19.9 -142.6-17.8L-142.6-17.8Q-142.6-13.9 -144.5-11.6L-144.5-11.6Q-149.7-5.3 -154.79999999999998-2.4Q-159.89999999999998 0.5 -165.5 0.5L-165.5 0.5Q-174 0.5 -178.79999999999998-4.55Q-183.6-9.6 -183.6-18.1L-183.6-18.1Q-183.6-24 -181.2-35.2L-181.2-35.2L-177.2-53.5Q-177-54.4 -176.5-56.7Q-176-59 -175.7-61.05Q-175.39999999999998-63.1 -175.39999999999998-65.1L-175.39999999999998-65.1Q-175.39999999999998-68.6 -176.75-70.35Q-178.1-72.1 -180.6-72.1L-180.6-72.1Q-185.29999999999998-72.1 -190.45-66.05Q-195.6-60 -200.25-46Q-204.89999999999998-32 -207.79999999999998-9.6L-207.79999999999998-9.6Q-208.5-3.6 -210.25-1.55Q-212 0.5 -215.89999999999998 0.5L-215.89999999999998 0.5Q-219.29999999999998 0.5 -220.85-1.1Q-222.39999999999998-2.7 -222.39999999999998-7.1L-222.39999999999998-7.1Q-222.39999999999998-11.2 -221.29999999999998-17.85Q-220.2-24.5 -218.5-33.5L-218.5-33.5Q-213.89999999999998-57.7 -213.89999999999998-64.7L-213.89999999999998-64.7Q-213.89999999999998-68.5 -215.35-70.3Q-216.79999999999998-72.1 -219.7-72.1L-219.7-72.1Q-224.6-72.1 -229.79999999999998-66.55Q-235-61 -239.95-46.85Q-244.89999999999998-32.7 -248.2-8.6L-248.2-8.6Q-248.89999999999998-3.5 -250.25-1.5Q-251.6 0.5 -255.5 0.5L-255.5 0.5ZM-138.4 0.5Q-144.6 0.5 -148.3-4Q-152-8.5 -152-15.8L-152-15.8Q-152-23.8 -148.3-30.95Q-144.6-38.1 -138.45-42.45Q-132.3-46.8 -125.4-46.8L-125.4-46.8Q-123.2-46.8 -122.45-45.95Q-121.7-45.1 -121.2-42.9L-121.2-42.9Q-119.1-43.3 -116.8-43.3L-116.8-43.3Q-111.9-43.3 -111.9-39.8L-111.9-39.8Q-111.9-37.7 -113.4-29.8L-113.4-29.8Q-115.7-18.3 -115.7-13.8L-115.7-13.8Q-115.7-12.3 -114.95-11.4Q-114.2-10.5 -113-10.5L-113-10.5Q-111.1-10.5 -108.4-12.95Q-105.7-15.4 -101.1-20.9L-101.1-20.9Q-99.9-22.3 -98.4-22.3L-98.4-22.3Q-97.1-22.3 -96.35-21.1Q-95.6-19.9 -95.6-17.8L-95.6-17.8Q-95.6-13.8 -97.5-11.6L-97.5-11.6Q-101.6-6.5 -106.2-3Q-110.8 0.5 -115.1 0.5L-115.1 0.5Q-118.4 0.5 -121.15-1.75Q-123.9-4 -125.3-7.9L-125.3-7.9Q-130.5 0.5 -138.4 0.5L-138.4 0.5ZM-134.8-9.6Q-132.6-9.6 -130.6-12.2Q-128.6-14.8 -127.7-19.1L-127.7-19.1L-124-37.5Q-128.2-37.4 -131.75-34.35Q-135.3-31.3 -137.4-26.3Q-139.5-21.3 -139.5-15.7L-139.5-15.7Q-139.5-12.6 -138.25-11.1Q-137-9.6 -134.8-9.6L-134.8-9.6ZM-85.1 2.7Q-90.3 2.7 -93.05 0.3Q-95.8-2.1 -95.8-5.1L-95.8-5.1Q-95.8-7.7 -93.9-9.6Q-92-11.5 -88.3-11.5L-88.3-11.5Q-87-11.5 -85.25-11.25Q-83.5-11 -82.6-10.9L-82.6-10.9Q-82.7-13.5 -83.75-15.8Q-84.8-18.1 -86.4-20.25Q-88-22.4 -89.4-24L-89.4-24Q-92.5-18.1 -95.55-14.2Q-98.6-10.3 -102.2-6.8L-102.2-6.8Q-104-5 -106-5L-106-5Q-107.6-5-108.6-6.15Q-109.6-7.3-109.6-9L-109.6-9Q-109.6-11 -108.2-12.7L-108.2-12.7L-106.9-14.3Q-101.4-21.1 -98.6-25.5L-98.6-25.5Q-96.9-28.4 -94.6-33.25Q-92.3-38.1 -90.1-43.3L-90.1-43.3Q-88.2-47.7 -82.2-47.7L-82.2-47.7Q-79.4-47.7 -78.3-47.2Q-77.2-46.7 -77.2-45.6L-77.2-45.6Q-77.2-45 -77.6-43.7Q-78-42.4 -78.7-41.1L-78.7-41.1Q-80.5-37.5 -80.5-35L-80.5-35Q-80.5-33.5 -79.45-31.7Q-78.4-29.9 -76.2-27.2L-76.2-27.2Q-73-23 -71.35-20.05Q-69.7-17.1 -69.7-13.6L-69.7-13.6Q-69.7-12.6 -69.9-10.8L-69.9-10.8Q-65-12.7 -58.4-20.9L-58.4-20.9Q-57.2-22.3 -55.7-22.3L-55.7-22.3Q-54.4-22.3 -53.65-21.1Q-52.9-19.9 -52.9-17.8L-52.9-17.8Q-52.9-14 -54.8-11.6L-54.8-11.6Q-59.8-5.4 -64.35-3.15Q-68.9-0.9 -75.6-0.7L-75.6-0.7Q-79.6 2.7 -85.1 2.7L-85.1 2.7ZM-16.4-22.3Q-15.099999999999994-22.3 -14.349999999999994-21.1Q-13.599999999999994-19.9 -13.599999999999994-17.8L-13.599999999999994-17.8Q-13.599999999999994-13.8 -15.5-11.6L-15.5-11.6Q-19.799999999999997-6.3 -24.9-2.9Q-30 0.5 -36.599999999999994 0.5L-36.599999999999994 0.5Q-57 0.5 -57-28.2L-57-28.2Q-57-32.6 -56.699999999999996-37.1L-56.699999999999996-37.1L-60.599999999999994-37.1Q-63.599999999999994-37.1 -64.64999999999999-38.2Q-65.7-39.3 -65.7-41.7L-65.7-41.7Q-65.7-47.3 -61.199999999999996-47.3L-61.199999999999996-47.3L-55.5-47.3Q-53.8-58.3 -50.3-67.4Q-46.8-76.5 -41.849999999999994-81.9Q-36.9-87.3 -31.199999999999996-87.3L-31.199999999999996-87.3Q-27-87.3 -24.599999999999994-83.6Q-22.199999999999996-79.9 -22.199999999999996-74.3L-22.199999999999996-74.3Q-22.199999999999996-58.8 -35.199999999999996-47.3L-35.199999999999996-47.3L-24-47.3Q-22.4-47.3 -21.699999999999996-46.6Q-21-45.9 -21-44L-21-44Q-21-37.1 -32.3-37.1L-32.3-37.1L-44.5-37.1Q-44.699999999999996-32.1 -44.699999999999996-29.3L-44.699999999999996-29.3Q-44.699999999999996-18.9 -42.25-14.7Q-39.8-10.5 -34.5-10.5L-34.5-10.5Q-30.199999999999996-10.5 -26.9-13.1Q-23.599999999999994-15.7 -19.099999999999994-20.9L-19.099999999999994-20.9Q-17.9-22.3 -16.4-22.3L-16.4-22.3ZM-33.9-77.7Q-35.4-77.7 -37.25-73.95Q-39.099999999999994-70.2 -40.75-63.55Q-42.4-56.9 -43.5-48.8L-43.5-48.8Q-37.599999999999994-53.9 -34.65-60.25Q-31.699999999999996-66.6 -31.699999999999996-71.8L-31.699999999999996-71.8Q-31.699999999999996-77.7 -33.9-77.7L-33.9-77.7ZM 22.900000000000006-22.3Q 24.20000000000001-22.3  24.95000000000001-21.1Q 25.70000000000001-19.9  25.70000000000001-17.8L 25.70000000000001-17.8Q 25.70000000000001-13.8  23.800000000000004-11.6L 23.800000000000004-11.6Q 20.10000000000001-7.1  13.350000000000009-3.3Q 6.6000000000000085 0.5 -1.0999999999999943 0.5L-1.0999999999999943 0.5Q-11.599999999999993 0.5 -17.39999999999999-5.2Q-23.199999999999992-10.9 -23.199999999999992-20.8L-23.199999999999992-20.8Q-23.199999999999992-27.7 -20.299999999999994-33.65Q-17.39999999999999-39.6 -12.249999999999993-43.1Q-7.099999999999994-46.6 -0.5999999999999943-46.6L-0.5999999999999943-46.6Q 5.200000000000006-46.6  8.70000000000001-43.15Q 12.20000000000001-39.7  12.20000000000001-33.8L 12.20000000000001-33.8Q 12.20000000000001-26.9  7.250000000000007-21.95Q 2.300000000000008-17 -9.499999999999993-14.1L-9.499999999999993-14.1Q-6.999999999999993-9.5  7.105427357601002e-15-9.5L 7.105427357601002e-15-9.5Q 4.500000000000007-9.5  10.250000000000007-12.65Q 16.000000000000007-15.8  20.20000000000001-20.9L 20.20000000000001-20.9Q 21.400000000000006-22.3  22.900000000000006-22.3L 22.900000000000006-22.3ZM-2.2999999999999936-36.8Q-5.999999999999993-36.8 -8.549999999999994-32.5Q-11.099999999999993-28.2 -11.099999999999993-22.1L-11.099999999999993-22.1L-11.099999999999993-21.9Q-5.199999999999992-23.3 -1.7999999999999936-26.1Q 1.6000000000000085-28.9  1.6000000000000085-32.6L 1.6000000000000085-32.6Q 1.6000000000000085-34.5  0.5500000000000078-35.65Q-0.4999999999999929-36.8 -2.2999999999999936-36.8L-2.2999999999999936-36.8ZM 24.70000000000001 0.5Q 20.900000000000013 0.5  19.350000000000012-3.5Q 17.80000000000001-7.5  17.80000000000001-16.3L 17.80000000000001-16.3Q 17.80000000000001-29.3  21.50000000000001-41L 21.50000000000001-41Q 22.400000000000013-43.9  24.45000000000001-45.25Q 26.50000000000001-46.6  30.20000000000001-46.6L 30.20000000000001-46.6Q 32.20000000000001-46.6  33.000000000000014-46.1Q 33.80000000000001-45.6  33.80000000000001-44.2L 33.80000000000001-44.2Q 33.80000000000001-42.6  32.30000000000001-37L 32.30000000000001-37Q 31.30000000000001-33  30.70000000000001-30Q 30.100000000000012-27  29.70000000000001-22.6L 29.70000000000001-22.6Q 33.000000000000014-31.2  37.10000000000001-36.6Q 41.20000000000001-42  45.15000000000001-44.3Q 49.10000000000001-46.6  52.40000000000001-46.6L 52.40000000000001-46.6Q 58.90000000000001-46.6  58.90000000000001-40.1L 58.90000000000001-40.1Q 58.90000000000001-38.8  58.000000000000014-33.8L 58.000000000000014-33.8Q 57.20000000000001-29.8  57.20000000000001-28.8L 57.20000000000001-28.8Q 57.20000000000001-25.3  59.70000000000001-25.3L 59.70000000000001-25.3Q 62.500000000000014-25.3  66.9-29.7L 66.9-29.7Q 68.20000000000002-31  69.60000000000001-31L 69.60000000000001-31Q 70.9-31  71.65-29.85Q 72.4-28.7  72.4-26.8L 72.4-26.8Q 72.4-23.1  70.4-21L 70.4-21Q 67.60000000000001-18.1  63.85000000000001-16.05Q 60.10000000000001-14  55.90000000000001-14L 55.90000000000001-14Q 50.60000000000001-14  47.85000000000001-16.7Q 45.10000000000001-19.4  45.10000000000001-24L 45.10000000000001-24Q 45.10000000000001-25.5  45.40000000000001-27L 45.40000000000001-27Q 45.60000000000001-29  45.60000000000001-29.7L 45.60000000000001-29.7Q 45.60000000000001-31.3  44.500000000000014-31.3L 44.500000000000014-31.3Q 43.000000000000014-31.3  40.55000000000001-27.95Q 38.10000000000001-24.6  35.70000000000001-19.1Q 33.30000000000001-13.6  31.80000000000001-7.5L 31.80000000000001-7.5Q 30.70000000000001-2.8  29.25000000000001-1.15Q 27.80000000000001 0.5  24.70000000000001 0.5L 24.70000000000001 0.5ZM 170.8 9.6Q 171.8 9.6  172.35000000000002 10.65Q 172.9 11.7  172.9 13.4L 172.9 13.4Q 172.9 16.6  171.20000000000002 19.7L 171.20000000000002 19.7Q 167.8 25.9  162.25 29.25Q 156.70000000000002 32.6  150.9 32.6L 150.9 32.6Q 145 32.6  141 30.75Q 137 28.9  134.20000000000002 25.25Q 131.4 21.6  128.8 15.6L 128.8 15.6Q 126.10000000000001 9.4  124.35000000000001 6.35Q 122.60000000000001 3.3  120.70000000000002 1.9Q 118.80000000000001 0.5  115.80000000000001-0.1L 115.80000000000001-0.1Q 104.70000000000002-2.3  97.95000000000002-11.1Q 91.20000000000002-19.9  91.20000000000002-33.8L 91.20000000000002-33.8Q 91.20000000000002-49  96.75000000000001-60.6Q 102.30000000000001-72.2  111.85000000000001-78.5Q 121.4-84.8  133-84.8L 133-84.8Q 141.9-84.8  149.05-80.8Q 156.20000000000002-76.8  160.4-69.05Q 164.60000000000002-61.3  164.60000000000002-50.5L 164.60000000000002-50.5Q 164.60000000000002-37.9  160.8-27.8Q 157-17.7  150.3-11Q 143.60000000000002-4.3  134.9-1.5L 134.9-1.5Q 137.4-0.1  139.25 2.6Q 141.10000000000002 5.3  143.20000000000002 10.4L 143.20000000000002 10.4Q 145.5 16  148.15 18.4Q 150.8 20.8  154.70000000000002 20.8L 154.70000000000002 20.8Q 158 20.8  161.10000000000002 18.55Q 164.20000000000002 16.3  168.10000000000002 11.2L 168.10000000000002 11.2Q 169.3 9.6  170.8 9.6L 170.8 9.6ZM 123.80000000000001-11.3Q 131.60000000000002-11.3  137.55-16.1Q 143.5-20.9  146.70000000000002-29.45Q 149.9-38  149.9-48.8L 149.9-48.8Q 149.9-60.7  144.9-66.85Q 139.9-73  132-73L 132-73Q 124.4-73  118.45000000000002-68.15Q 112.50000000000001-63.3  109.20000000000002-54.8Q 105.9-46.3  105.9-35.5L 105.9-35.5Q 105.9-23.6  110.9-17.45Q 115.9-11.3  123.80000000000001-11.3L 123.80000000000001-11.3ZM 180.40000000000003 0.5Q 175.90000000000003 0.5  173.05000000000004-3.65Q 170.20000000000005-7.8  170.20000000000005-14L 170.20000000000005-14Q 170.20000000000005-21.5  171.20000000000005-27.75Q 172.20000000000005-34  174.50000000000003-41L 174.50000000000003-41Q 175.50000000000003-44  177.30000000000004-45.3Q 179.10000000000002-46.6  183.00000000000003-46.6L 183.00000000000003-46.6Q 185.20000000000005-46.6  186.05000000000004-45.9Q 186.90000000000003-45.2  186.90000000000003-43.8L 186.90000000000003-43.8Q 186.90000000000003-43  185.80000000000004-38.4L 185.80000000000004-38.4Q 184.80000000000004-34.7  184.20000000000005-31.7L 184.20000000000005-31.7Q 182.20000000000005-21.2  182.20000000000005-17.7L 182.20000000000005-17.7Q 182.20000000000005-15.6  182.70000000000005-14.75Q 183.20000000000005-13.9  184.30000000000004-13.9L 184.30000000000004-13.9Q 185.80000000000004-13.9  188.05000000000004-16.9Q 190.30000000000004-19.9  192.85000000000002-26Q 195.40000000000003-32.1  197.80000000000004-41L 197.80000000000004-41Q 198.60000000000002-44  200.25000000000003-45.3Q 201.90000000000003-46.6  205.20000000000005-46.6L 205.20000000000005-46.6Q 207.50000000000003-46.6  208.40000000000003-46.05Q 209.30000000000004-45.5  209.30000000000004-44L 209.30000000000004-44Q 209.30000000000004-41.5  206.80000000000004-30.3L 206.80000000000004-30.3Q 204.00000000000003-17.5  204.00000000000003-14.5L 204.00000000000003-14.5Q 204.00000000000003-12.6  204.80000000000004-11.55Q 205.60000000000002-10.5  206.90000000000003-10.5L 206.90000000000003-10.5Q 208.90000000000003-10.5  211.65000000000003-12.95Q 214.40000000000003-15.4  219.00000000000003-20.9L 219.00000000000003-20.9Q 220.20000000000005-22.3  221.70000000000005-22.3L 221.70000000000005-22.3Q 223.00000000000003-22.3  223.75000000000003-21.1Q 224.50000000000003-19.9  224.50000000000003-17.8L 224.50000000000003-17.8Q 224.50000000000003-13.8  222.60000000000002-11.6L 222.60000000000002-11.6Q 218.30000000000004-6.3  213.35000000000002-2.9Q 208.40000000000003 0.5  202.10000000000002 0.5L 202.10000000000002 0.5Q 197.30000000000004 0.5  195.05000000000004-3.2Q 192.80000000000004-6.9  192.80000000000004-13.6L 192.80000000000004-13.6Q 191.10000000000002-6.8  187.70000000000005-3.15Q 184.30000000000004 0.5  180.40000000000003 0.5L 180.40000000000003 0.5ZM 229.50000000000003-53.2Q 225.3-53.2  223.20000000000002-55.15Q 221.10000000000002-57.1  221.10000000000002-60.6L 221.10000000000002-60.6Q 221.10000000000002-64.1  223.85000000000002-66.45Q 226.60000000000002-68.8  230.70000000000002-68.8L 230.70000000000002-68.8Q 234.40000000000003-68.8  236.70000000000002-67Q 239.00000000000003-65.2  239.00000000000003-61.9L 239.00000000000003-61.9Q 239.00000000000003-57.9  236.40000000000003-55.55Q 233.8-53.2  229.50000000000003-53.2L 229.50000000000003-53.2ZM 228.70000000000002 0.5Q 222.20000000000002 0.5  219.25000000000003-4.1Q 216.3-8.7  216.3-16.3L 216.3-16.3Q 216.3-20.8  217.45000000000002-27.85Q 218.60000000000002-34.9  220.40000000000003-41L 220.40000000000003-41Q 221.3-44.2  222.8-45.4Q 224.3-46.6  227.60000000000002-46.6L 227.60000000000002-46.6Q 232.70000000000002-46.6  232.70000000000002-43.2L 232.70000000000002-43.2Q 232.70000000000002-40.7  230.8-31.6L 230.8-31.6Q 228.40000000000003-20.6  228.40000000000003-16.7L 228.40000000000003-16.7Q 228.40000000000003-13.7  229.20000000000002-12.1Q 230.00000000000003-10.5  231.90000000000003-10.5L 231.90000000000003-10.5Q 233.70000000000002-10.5  236.40000000000003-13Q 239.10000000000002-15.5  243.60000000000002-20.9L 243.60000000000002-20.9Q 244.8-22.3  246.3-22.3L 246.3-22.3Q 247.60000000000002-22.3  248.35000000000002-21.1Q 249.10000000000002-19.9  249.10000000000002-17.8L 249.10000000000002-17.8Q 249.10000000000002-13.8  247.20000000000002-11.6L 247.20000000000002-11.6Q 237.3 0.5  228.70000000000002 0.5L 228.70000000000002 0.5ZM 288.90000000000003-22.3Q 290.20000000000005-22.3  290.95000000000005-21.1Q 291.70000000000005-19.9  291.70000000000005-17.8L 291.70000000000005-17.8Q 291.70000000000005-14.1  289.80000000000007-11.6L 289.80000000000007-11.6Q 285.1-5.5  278.15000000000003-2Q 271.20000000000005 1.5  262.50000000000006 1.5L 262.50000000000006 1.5Q 255.70000000000005 1.5  250.70000000000005-0.55Q 245.70000000000005-2.6  243.05000000000004-6.15Q 240.40000000000003-9.7  240.40000000000003-14.1L 240.40000000000003-14.1Q 240.40000000000003-20.7  245.70000000000005-25.8Q 251.00000000000006-30.9  260.90000000000003-35.6L 260.90000000000003-35.6L 244.50000000000006-35.2Q 242.30000000000004-35.1  241.15000000000003-36.75Q 240.00000000000006-38.4  240.00000000000006-40.7L 240.00000000000006-40.7Q 240.00000000000006-43.1  241.15000000000003-44.95Q 242.30000000000004-46.8  244.30000000000004-46.8L 244.30000000000004-46.8Q 248.90000000000003-46.8  256.6-46.1L 256.6-46.1Q 258.20000000000005-46  262.45000000000005-45.7Q 266.70000000000005-45.4  269.6-45.4L 269.6-45.4Q 270.6-45.4  273.40000000000003-46.2L 273.40000000000003-46.2Q 273.90000000000003-46.3  275.35-46.7Q 276.80000000000007-47.1  277.80000000000007-47.1L 277.80000000000007-47.1Q 279.40000000000003-47.1  280.45000000000005-45.7Q 281.50000000000006-44.3  281.50000000000006-41.4L 281.50000000000006-41.4Q 281.50000000000006-38.2  280.00000000000006-36.4Q 278.50000000000006-34.6  275.30000000000007-33.2L 275.30000000000007-33.2Q 266.20000000000005-29.3  260.20000000000005-24.85Q 254.20000000000005-20.4  254.20000000000005-16L 254.20000000000005-16Q 254.20000000000005-13.2  256.80000000000007-11.4Q 259.40000000000003-9.6  264.50000000000006-9.6L 264.50000000000006-9.6Q 270.1-9.6  275.85-12.4Q 281.6-15.2  286.20000000000005-20.9L 286.20000000000005-20.9Q 287.40000000000003-22.3  288.90000000000003-22.3L 288.90000000000003-22.3Z"></path>
    <g transform="matrix(0.8125001788139343, 0, 0, 0.8125001788139343, 53.478424072265625, 53.093868255615234)">
        <path d="M12.5,21.006c-0.214,0-0.406-0.137-0.475-0.342l-1.921-5.763L4.342,12.98c-0.187-0.062-0.319-0.228-0.339-0.423 c-0.021-0.196,0.076-0.385,0.246-0.483l19-11c0.171-0.097,0.38-0.088,0.537,0.023c0.16,0.111,0.24,0.305,0.206,0.497l-3,17   c-0.026,0.15-0.12,0.28-0.255,0.353c-0.133,0.073-0.293,0.08-0.435,0.02l-6.434-2.757l-0.879,4.396   c-0.044,0.222-0.232,0.387-0.459,0.401C12.521,21.005,12.51,21.006,12.5,21.006z M5.711,12.382l4.947,1.649 c0.149,0.049,0.267,0.167,0.316,0.316l1.404,4.214l0.631-3.154c0.029-0.147,0.124-0.274,0.258-0.344 c0.133-0.071,0.291-0.077,0.43-0.017l6.42,2.751l2.704-15.321L5.711,12.382z" transform="matrix(9.21692943572998, 0, 0, 9.21692943572998, 142.60638427734375, 76.1761474609375)"></path>
        <path d="M13.5,16.006c-0.101,0-0.202-0.03-0.291-0.093c-0.225-0.16-0.276-0.473-0.116-0.697l6.489-9.084l-8.729,8.728 c-0.195,0.195-0.512,0.195-0.707,0s-0.195-0.512,0-0.707l13-13c0.185-0.185,0.478-0.197,0.677-0.028 c0.198,0.168,0.234,0.46,0.084,0.672l-10,14C13.81,15.933,13.655,16.006,13.5,16.006z" transform="matrix(9.21692943572998, 0, 0, 9.21692943572998, 142.6094207763672, 77.8016128540039)"></path>
        <path d="M12.5,21.006c-0.104,0-0.21-0.033-0.3-0.1c-0.221-0.166-0.266-0.479-0.101-0.7l3-4c0.167-0.222,0.48-0.265,0.7-0.1 c0.221,0.166,0.266,0.479,0.101,0.7l-3,4C12.802,20.937,12.651,21.006,12.5,21.006z" transform="matrix(9.21692943572998, 0, 0, 9.21692943572998, 144.15823364257812, 79.34628295898438)"></path>
        <path d="M1.222,19.699c-0.121,0-0.242-0.043-0.339-0.132c-0.249-0.229-0.494-0.465-0.736-0.707c-0.195-0.195-0.195-0.512,0-0.707 c0.195-0.196,0.512-0.195,0.707-0.001c0.232,0.232,0.468,0.459,0.707,0.679c0.203,0.187,0.216,0.503,0.029,0.707 C1.491,19.644,1.356,19.699,1.222,19.699z" transform="matrix(1.5472955703735352, 0, 0, 1.5472955703735352, 252.4014129638672, 204.7275848388672)"></path>
        <path d="M8.034,22.995c-0.472,0-0.956-0.05-1.438-0.149c-0.271-0.055-0.444-0.319-0.39-0.59c0.056-0.271,0.323-0.442,0.591-0.39 c0.416,0.085,0.832,0.128,1.237,0.128c0.002,0,0.004,0,0.006,0l0.225-0.004c0.325-0.018,0.509,0.206,0.519,0.481 S8.577,22.98,8.302,22.99l-0.261,0.005C8.039,22.995,8.036,22.995,8.034,22.995z M4.451,22.038c-0.078,0-0.156-0.018-0.23-0.056 c-0.466-0.242-0.943-0.533-1.419-0.863c-0.228-0.158-0.283-0.47-0.125-0.696c0.158-0.228,0.471-0.282,0.695-0.125 c0.44,0.307,0.881,0.575,1.31,0.797c0.245,0.127,0.341,0.429,0.213,0.674C4.806,21.94,4.632,22.038,4.451,22.038z" transform="matrix(9.21692943572998, 0, 0, 9.21692943572998, 110.86078643798828, 85.18427276611328)"></path>
        <path d="M10.605,22.459c-0.194,0-0.379-0.114-0.46-0.303c-0.108-0.254,0.01-0.548,0.264-0.657 c0.277-0.119,0.558-0.259,0.837-0.424c0.237-0.14,0.543-0.062,0.685,0.177c0.141,0.238,0.062,0.544-0.177,0.685 c-0.309,0.182-0.629,0.345-0.952,0.483C10.738,22.447,10.671,22.459,10.605,22.459z" transform="matrix(9.21692943572998, 0, 0, 9.21692943572998, 119.91018676757812, 82.44525909423828)"></path>
    </g>
</svg>