<svg
  fill="none"
  stroke="#ffc566"
  stroke-width="20"
  xmlns="http://www.w3.org/2000/svg"
  viewBox="0 0 800 800">
  <path d="M200 650h60m-60-300v300m0-300a100 100 0 01400 0m0 0v300m0 0h60" />
  <circle cx="320" cy="350" r="120" />
  <circle cx="260" cy="320" r="25" />
  <circle cx="350" cy="320" r="25" />
  <path
    d="M135 570a35 35 0 010-70M135 500h25M135 570h25M100 590h60M500 570a35 35 0 010-70M500 500h25M500 570h25M465 590h60" />
  <path
    d="M189 231a30 30 45 0142-42M189 231l20 20M231 189l10 10M589 189a30 30 135 0142 42M589 189l-10 10M631 231l-20 20" />
</svg>
